<svg width="50" height="50" viewBox="0 0 50 50" fill="none" xmlns="http://www.w3.org/2000/svg">
<path d="M25 50C38.8071 50 50 38.8071 50 25C50 11.1929 38.8071 0 25 0C11.1929 0 0 11.1929 0 25C0 38.8071 11.1929 50 25 50Z" fill="black"/>
<path d="M41.7537 21.633C40.1959 14.0205 33.4605 8.2946 25.3882 8.2946C16.1623 8.2946 8.68275 15.7734 8.68275 25C8.68275 34.2266 16.1615 41.7054 25.3882 41.7054C33.47 41.7054 40.2113 35.9664 41.7588 28.3414H48.538C46.9167 39.6754 37.1696 48.3874 25.3874 48.3874C12.4708 48.3874 2 37.9167 2 25C2 12.0833 12.4715 1.61258 25.3882 1.61258C37.1703 1.61258 46.9174 10.3253 48.5387 21.6586H41.7588" fill="white"/>
<path d="M40.6528 23.3297H15.8333C16.6192 19.0526 20.3655 15.8121 24.8699 15.8121C28.7654 15.8121 32.095 18.2368 33.4313 21.6586H40.3867H40.3874C38.8531 14.4978 32.4883 9.13011 24.8699 9.13011C16.1053 9.13011 9 16.2354 9 25C9 25.5643 9.02924 26.1213 9.08699 26.6703H33.9057C33.1199 30.9474 29.3735 34.1879 24.8692 34.1879C20.9737 34.1879 17.644 31.7632 16.3077 28.3414H9.35234C10.8867 35.5015 17.2515 40.8699 24.8699 40.8699C33.6345 40.8699 40.7398 33.7646 40.7398 25C40.7398 24.4269 40.7091 23.8611 40.6499 23.3034" fill="white"/>
</svg>
